<?xml version="1.0" encoding="UTF-8"?>
<svg id="Layer_1" data-name="Layer 1" xmlns="http://www.w3.org/2000/svg" viewBox="0 0 1602.84 537.17">
  <defs>
    <style>
      .cls-1 {
        fill: #e42d26;
      }

      .cls-2 {
        fill: #010101;
      }
    </style>
  </defs>
  <path class="cls-1" d="M268.59,537.17C120.25,537.17,0,416.92,0,268.59S120.25,0,268.59,0s268.59,120.25,268.59,268.59c-.11,148.29-120.3,268.47-268.59,268.59ZM268.59,47.16c-122.35-.06-221.58,99.08-221.63,221.43-.06,122.35,99.08,221.58,221.43,221.63,122.35.06,221.58-99.08,221.63-221.43,0-.03,0-.07,0-.1-.11-122.26-99.17-221.36-221.43-221.53Z"/>
  <rect class="cls-1" x="128.36" y="187.28" width="276.39" height="49.03" rx="1.97" ry="1.97"/>
  <rect class="cls-1" x="128.36" y="295.13" width="276.39" height="49.03" rx="1.97" ry="1.97"/>
  <g>
    <path class="cls-2" d="M576.91,90.11h25.6v89.29h36.06v19.67h-61.66v-108.96Z"/>
    <path class="cls-2" d="M728.16,164.88h-47.92c0,9.68,6.24,18.58,20.14,18.58,8.43,0,16.86-3.12,22.95-6.4l.47,18.58c-7.96,2.97-17.33,4.68-25.76,4.68-28.57,0-41.21-17.33-41.21-42.15,0-21.85,12.8-41.68,36.06-41.68,7.34,0,35.28,0,35.28,42.46v5.93ZM705.68,151.45c0-10.3-2.65-19.98-12.8-19.98-12.64,0-12.64,15.61-12.64,19.98h25.44Z"/>
    <path class="cls-2" d="M781.23,171.74l-13.74,27.32h-25.6l25.44-43.4-23.1-37.93h27.47l11.4,24.35,11.08-24.35h25.6l-23.1,37.93,24.66,43.4h-27.47l-12.64-27.32Z"/>
    <path class="cls-2" d="M840.08,81.99h24.66v21.85h-24.66v-21.85ZM840.08,117.74h24.66v81.33h-24.66v-81.33Z"/>
    <path class="cls-2" d="M936.24,148.95c0-10.15-4.53-12.8-9.52-12.8-7.96,0-10.77,6.87-10.77,17.33v45.58h-24.66v-64.31c0-7.81-.16-12.8-.62-17.01h22.48c.31,3.59.62,8.12.62,13.58h.31c3.75-8.9,9.99-14.83,22.95-14.83,17.95,0,23.88,13.11,23.88,29.35v53.23h-24.66v-50.11Z"/>
    <path class="cls-2" d="M1059.09,189.23c0,11.86-.31,44.49-41.37,44.49-11.55,0-21.54-2.5-29.35-4.84l.78-20.14c4.21,2.19,14.36,7.18,25.6,7.18,19.51,0,20.29-14.36,20.29-31.22h-.31c-1.4,4.37-7.65,14.36-21.38,14.36s-28.72-9.99-28.72-40.59c0-25.91,10.3-41.99,28.88-41.99,14.2,0,19.67,9.21,21.85,14.21h.31l.62-12.96h23.41c-.31,3.75-.62,7.96-.62,18.26v53.23ZM1022.09,181.74c9.99,0,12.33-12.02,12.33-23.41,0-9.37-2.19-24.04-12.18-24.04-11.4,0-12.02,15.61-12.02,24.04,0,6.4.94,23.41,11.86,23.41Z"/>
    <path class="cls-2" d="M1078.44,117.74h14.05v-16.7l24.04-7.65v24.35h15.92v17.33h-15.92v37.31c0,7.96,3.59,10.15,8.27,10.15,3.43,0,5.62-.62,8.12-1.72v17.33c-2.5.94-9.21,2.19-17.17,2.19-12.8,0-23.88-6.24-23.88-24.04v-41.21h-13.42v-17.33Z"/>
    <path class="cls-2" d="M1190.36,116.49c24.98,0,38.24,17.33,38.24,41.68s-13.27,42.15-38.24,42.15-38.24-17.48-38.24-42.15,13.27-41.68,38.24-41.68ZM1190.36,183.45c8.59,0,12.64-9.37,12.64-25.29s-4.06-24.82-12.64-24.82-12.64,8.9-12.64,24.82,4.06,25.29,12.64,25.29Z"/>
    <path class="cls-2" d="M1297.29,148.95c0-10.15-4.53-12.8-9.52-12.8-7.96,0-10.77,6.87-10.77,17.33v45.58h-24.66v-64.31c0-7.81-.16-12.8-.62-17.01h22.48c.31,3.59.62,8.12.62,13.58h.31c3.75-8.9,9.99-14.83,22.95-14.83,17.95,0,23.88,13.11,23.88,29.35v53.23h-24.66v-50.11Z"/>
  </g>
  <g>
    <path class="cls-2" d="M575.16,248.53h23.77v68.27c0,10.15,3.77,16.38,13.33,16.38s13.33-6.23,13.33-16.38v-68.27h23.77v64.5c0,25.08-14.35,38.41-37.11,38.41s-37.11-13.33-37.11-38.41v-64.5Z"/>
    <path class="cls-2" d="M669.22,289.99c0-7.25-.14-11.88-.58-15.8h20.87c.14,4.49.43,9.13.58,13.62h.29c4.64-8.12,7.83-14.78,21.02-14.78h3.33v21.16c-2.46-.58-4.49-.87-7.68-.87-13.33,0-14.93,11.6-14.93,22.61v33.77h-22.9v-59.72Z"/>
    <path class="cls-2" d="M728.94,240.99h22.9v44.35h.29c2.75-6.81,8.84-12.32,19.42-12.32,18.99,0,26.52,16.81,26.52,37.11,0,24.06-9.57,40.73-26.52,40.73-13.19,0-18.26-8.55-20.58-13.19h-.29c0,5.22-.29,9.13-.58,12.03h-21.74c.29-3.48.58-7.39.58-16.96v-91.75ZM763.29,288.68c-9.28,0-11.45,11.31-11.45,23.34,0,8.7,2.03,22.32,11.45,22.32,10.44,0,11.02-14.49,11.02-22.32,0-12.03-.87-23.34-11.02-23.34Z"/>
    <path class="cls-2" d="M820.69,277.81c5.94-1.88,16.09-4.78,24.35-4.78,26.52,0,32.61,11.02,32.61,27.83v27.54c0,11.16.15,16.23.58,21.31h-20.87l-.58-10.44h-.29c-1.01,4.64-9.86,11.59-20.73,11.59-14.06,0-23.34-9.13-23.34-22.9,0-25.22,29.42-25.37,37.4-25.37h6.96c0-14.49-10.73-14.49-14.06-14.49-5.8,0-12.03,1.3-21.02,6.67l-1.01-16.96ZM856.78,313.32c-9.13,0-23.48.58-23.48,13.19,0,9.86,7.97,9.86,9.86,9.86,2.03,0,13.62-.29,13.62-18.7v-4.35Z"/>
    <path class="cls-2" d="M938.39,303.18c0-9.42-4.2-11.89-8.84-11.89-7.39,0-10,6.38-10,16.09v42.32h-22.9v-59.72c0-7.25-.14-11.88-.58-15.8h20.87c.29,3.33.58,7.54.58,12.61h.29c3.48-8.26,9.28-13.77,21.31-13.77,16.67,0,22.18,12.17,22.18,27.25v49.43h-22.9v-46.53Z"/>
    <path class="cls-2" d="M1023.18,248.53h23.77v82.91h33.48v18.26h-57.25v-101.17Z"/>
    <path class="cls-2" d="M1158.99,317.96h-44.5c0,8.99,5.8,17.25,18.7,17.25,7.83,0,15.65-2.9,21.31-5.94l.44,17.25c-7.39,2.75-16.09,4.35-23.92,4.35-26.52,0-38.26-16.09-38.26-39.13,0-20.29,11.88-38.7,33.48-38.7,6.81,0,32.76,0,32.76,39.42v5.51ZM1138.12,305.49c0-9.57-2.46-18.55-11.89-18.55-11.74,0-11.74,14.5-11.74,18.55h23.63Z"/>
    <path class="cls-2" d="M1181.03,277.81c5.94-1.88,16.09-4.78,24.35-4.78,26.52,0,32.61,11.02,32.61,27.83v27.54c0,11.16.15,16.23.58,21.31h-20.87l-.58-10.44h-.29c-1.01,4.64-9.86,11.59-20.73,11.59-14.06,0-23.34-9.13-23.34-22.9,0-25.22,29.42-25.37,37.4-25.37h6.96c0-14.49-10.73-14.49-14.06-14.49-5.8,0-12.03,1.3-21.02,6.67l-1.01-16.96ZM1217.12,313.32c-9.13,0-23.48.58-23.48,13.19,0,9.86,7.97,9.86,9.86,9.86,2.03,0,13.62-.29,13.62-18.7v-4.35Z"/>
    <path class="cls-2" d="M1324.23,340.57c0,11.02-.29,41.31-38.41,41.31-10.73,0-20-2.32-27.25-4.49l.72-18.7c3.91,2.03,13.33,6.67,23.77,6.67,18.12,0,18.84-13.33,18.84-28.99h-.29c-1.3,4.06-7.1,13.33-19.86,13.33s-26.67-9.28-26.67-37.69c0-24.06,9.57-38.99,26.81-38.99,13.19,0,18.26,8.55,20.29,13.19h.29l.58-12.03h21.74c-.29,3.48-.58,7.39-.58,16.96v49.42ZM1289.88,333.61c9.28,0,11.45-11.16,11.45-21.74,0-8.7-2.03-22.32-11.31-22.32-10.58,0-11.16,14.49-11.16,22.32,0,5.94.87,21.74,11.02,21.74Z"/>
    <path class="cls-2" d="M1408.15,333.9c0,7.25.15,11.89.58,15.8h-20.87c-.29-3.33-.58-7.54-.58-12.61h-.29c-3.48,8.26-9.28,13.77-21.31,13.77-16.67,0-22.18-12.17-22.18-27.25v-49.43h22.9v46.53c0,9.42,4.2,11.88,8.84,11.88,7.39,0,10-6.38,10-16.09v-42.32h22.9v59.72Z"/>
    <path class="cls-2" d="M1491.79,317.96h-44.5c0,8.99,5.8,17.25,18.7,17.25,7.83,0,15.65-2.9,21.31-5.94l.44,17.25c-7.39,2.75-16.09,4.35-23.92,4.35-26.52,0-38.26-16.09-38.26-39.13,0-20.29,11.88-38.7,33.48-38.7,6.81,0,32.76,0,32.76,39.42v5.51ZM1470.92,305.49c0-9.57-2.46-18.55-11.89-18.55-11.74,0-11.74,14.5-11.74,18.55h23.63Z"/>
  </g>
  <g>
    <path class="cls-2" d="M591.44,431.02l-16.46-41.04h14.85l10.44,29.4,22.78-29.4h16.36l-33.92,41.04-6.12,29h-14.05l6.12-29Z"/>
    <path class="cls-2" d="M671.77,408.69c2.91,1.04,5.4,2.53,7.48,4.47,2.07,1.94,3.7,4.31,4.87,7.12,1.17,2.81,1.76,5.99,1.76,9.53,0,4.55-.75,8.75-2.26,12.59-1.51,3.85-3.61,7.16-6.32,9.93-2.71,2.78-5.96,4.95-9.73,6.52-3.78,1.57-7.94,2.36-12.49,2.36-7.36,0-13.11-2.11-17.26-6.32-4.15-4.21-6.22-9.97-6.22-17.26,0-4.28.79-8.29,2.36-12.04,1.57-3.75,3.73-6.97,6.47-9.68,2.74-2.71,5.97-4.85,9.68-6.42,3.71-1.57,7.74-2.36,12.09-2.36,3.48,0,6.67.52,9.58,1.56ZM662.99,448.78c1.94-1.34,3.56-3.04,4.87-5.12,1.3-2.07,2.29-4.33,2.96-6.77.67-2.44,1-4.77,1-6.97,0-1.67-.17-3.26-.5-4.77-.34-1.5-.89-2.81-1.66-3.91-.77-1.1-1.81-1.99-3.11-2.66-1.3-.67-2.96-1-4.97-1-2.68,0-5,.65-6.97,1.96-1.97,1.3-3.63,2.99-4.97,5.07-1.34,2.07-2.34,4.35-3.01,6.82-.67,2.48-1,4.88-1,7.23,0,1.74.18,3.35.55,4.82.37,1.47.97,2.74,1.81,3.81.84,1.07,1.92,1.92,3.26,2.56,1.34.64,2.98.95,4.92.95,2.61,0,4.88-.67,6.82-2.01Z"/>
    <path class="cls-2" d="M744.37,452.6c-.34,1.54-.6,2.96-.8,4.26s-.37,2.36-.5,3.16h-13.15l.9-5.02h-.2c-1.87,1.74-4.05,3.21-6.52,4.42-2.48,1.21-5.19,1.81-8.13,1.81-5.08,0-9.17-1.47-12.24-4.42-3.08-2.94-4.62-6.99-4.62-12.14,0-1.94.2-3.9.6-5.87.4-1.97.77-3.76,1.1-5.37l5.42-25.09h13.45l-5.02,24.38c-.34,1.74-.67,3.5-1,5.27-.34,1.77-.5,3.63-.5,5.57,0,2.14.69,3.88,2.06,5.22,1.37,1.34,3.13,2.01,5.27,2.01,2.34,0,4.33-.5,5.97-1.5,1.64-1,3.01-2.29,4.11-3.86,1.1-1.57,2.01-3.33,2.71-5.27.7-1.94,1.25-3.88,1.66-5.82l5.52-25.99h13.45l-9.53,44.25Z"/>
    <path class="cls-2" d="M771.56,415.77c.33-1.54.6-2.96.8-4.26s.37-2.36.5-3.16h13.15l-.9,5.02h.2c1.87-1.74,4.05-3.21,6.52-4.42,2.47-1.2,5.18-1.81,8.13-1.81,5.08,0,9.16,1.47,12.24,4.42,3.08,2.94,4.62,6.99,4.62,12.14,0,1.94-.2,3.9-.6,5.87-.4,1.97-.77,3.76-1.1,5.37l-5.42,25.09h-13.45l5.02-24.38c.33-1.74.67-3.5,1-5.27.33-1.77.5-3.63.5-5.57,0-2.14-.69-3.88-2.06-5.22-1.37-1.34-3.13-2.01-5.27-2.01-2.34,0-4.33.5-5.97,1.5-1.64,1-3.01,2.29-4.11,3.86-1.1,1.57-2.01,3.33-2.71,5.27-.7,1.94-1.25,3.88-1.66,5.82l-5.52,25.99h-13.45l9.53-44.25Z"/>
    <path class="cls-2" d="M830.06,467.85c2.67,1.14,5.32,2.09,7.93,2.86,2.61.77,5.38,1.15,8.33,1.15,3.54,0,6.41-.59,8.58-1.76,2.17-1.17,3.95-2.74,5.32-4.72,1.37-1.97,2.46-4.26,3.26-6.87.8-2.61,1.61-5.38,2.41-8.33h-.2c-1.74,3.15-4.13,5.57-7.17,7.28-3.04,1.71-6.44,2.56-10.19,2.56-3.15,0-5.85-.6-8.13-1.81-2.28-1.2-4.13-2.83-5.57-4.87-1.44-2.04-2.51-4.38-3.21-7.02-.7-2.64-1.05-5.37-1.05-8.18,0-3.88.58-7.68,1.76-11.39,1.17-3.71,2.86-7.02,5.07-9.93,2.21-2.91,4.93-5.25,8.18-7.02,3.24-1.77,6.97-2.66,11.19-2.66,3.41,0,6.49.77,9.23,2.31,2.74,1.54,4.92,3.68,6.52,6.42l1.5-7.53h12.95c-.47,1.54-1.04,3.95-1.71,7.23l-8.23,38.83c-.8,4.21-1.91,8.04-3.31,11.49-1.4,3.45-3.26,6.37-5.57,8.78-2.31,2.41-5.15,4.28-8.53,5.62-3.38,1.34-7.41,2.01-12.09,2.01-3.55,0-7.04-.27-10.49-.8-3.45-.54-6.84-1.44-10.19-2.71l3.41-10.94ZM865.59,420.74c-1.67-2.11-4.08-3.16-7.22-3.16-2.41,0-4.5.7-6.27,2.11-1.77,1.4-3.23,3.15-4.37,5.22-1.14,2.07-1.97,4.3-2.51,6.67-.54,2.38-.8,4.53-.8,6.47,0,1.54.17,3.01.5,4.42.33,1.4.84,2.64,1.51,3.71.67,1.07,1.54,1.91,2.61,2.51,1.07.6,2.37.9,3.91.9,2.67,0,4.97-.63,6.87-1.91,1.91-1.27,3.48-2.93,4.72-4.97,1.24-2.04,2.14-4.31,2.71-6.82.57-2.51.85-5,.85-7.48,0-3.01-.84-5.57-2.51-7.68Z"/>
    <path class="cls-2" d="M941.35,460.02h-14.05l14.85-70.04h11.84c3.21,0,6.62.13,10.24.4,3.61.27,6.94.99,9.99,2.16,3.04,1.17,5.55,2.98,7.53,5.42,1.97,2.44,2.96,5.84,2.96,10.19s-.8,7.91-2.41,11.09c-1.61,3.18-3.78,5.82-6.52,7.93s-5.9,3.68-9.48,4.72c-3.58,1.04-7.31,1.55-11.19,1.55h-8.13l-5.62,26.59ZM949.38,422.39h5.02c1.94,0,3.85-.25,5.72-.75,1.87-.5,3.55-1.29,5.02-2.36,1.47-1.07,2.66-2.39,3.56-3.96.9-1.57,1.35-3.46,1.35-5.67,0-1.81-.33-3.26-1-4.37-.67-1.1-1.54-1.97-2.61-2.61-1.07-.64-2.33-1.07-3.76-1.3-1.44-.23-2.89-.35-4.37-.35h-4.42l-4.52,21.37Z"/>
    <path class="cls-2" d="M997.24,415.27c.4-2.21.8-4.52,1.2-6.92h12.84l-1.81,9.73h.2c.6-1.41,1.44-2.76,2.51-4.06,1.07-1.3,2.29-2.47,3.66-3.51,1.37-1.04,2.84-1.86,4.42-2.46,1.57-.6,3.13-.9,4.67-.9.87,0,1.74.04,2.61.1.87.07,1.71.2,2.51.4l-2.81,13.15c-1.61-.53-3.31-.8-5.12-.8-2.41,0-4.5.49-6.27,1.46-1.77.97-3.3,2.26-4.57,3.86-1.27,1.61-2.33,3.41-3.16,5.42-.84,2.01-1.46,4.05-1.86,6.12l-4.82,23.18h-13.45l9.23-44.75Z"/>
    <path class="cls-2" d="M1074.16,408.69c2.91,1.04,5.4,2.53,7.48,4.47,2.07,1.94,3.7,4.31,4.87,7.12,1.17,2.81,1.76,5.99,1.76,9.53,0,4.55-.75,8.75-2.26,12.59-1.5,3.85-3.61,7.16-6.32,9.93-2.71,2.78-5.96,4.95-9.73,6.52-3.78,1.57-7.94,2.36-12.49,2.36-7.36,0-13.11-2.11-17.26-6.32-4.15-4.21-6.22-9.97-6.22-17.26,0-4.28.79-8.29,2.36-12.04,1.57-3.75,3.73-6.97,6.47-9.68,2.74-2.71,5.97-4.85,9.68-6.42,3.71-1.57,7.74-2.36,12.09-2.36,3.48,0,6.67.52,9.58,1.56ZM1065.38,448.78c1.94-1.34,3.56-3.04,4.87-5.12,1.3-2.07,2.29-4.33,2.96-6.77.67-2.44,1-4.77,1-6.97,0-1.67-.17-3.26-.5-4.77-.34-1.5-.89-2.81-1.66-3.91-.77-1.1-1.81-1.99-3.11-2.66-1.3-.67-2.96-1-4.97-1-2.68,0-5,.65-6.97,1.96-1.97,1.3-3.63,2.99-4.97,5.07-1.34,2.07-2.34,4.35-3.01,6.82-.67,2.48-1,4.88-1,7.23,0,1.74.18,3.35.55,4.82.37,1.47.97,2.74,1.81,3.81.84,1.07,1.92,1.92,3.26,2.56,1.34.64,2.98.95,4.92.95,2.61,0,4.88-.67,6.82-2.01Z"/>
    <path class="cls-2" d="M1111.84,418.18h-10.44l2.11-9.83h10.44c.67-3.28,1.5-6.42,2.51-9.43,1-3.01,2.36-5.65,4.06-7.93,1.71-2.27,3.85-4.08,6.42-5.42,2.57-1.34,5.84-2.01,9.78-2.01,1.54,0,3.03.14,4.47.4,1.44.27,2.73.57,3.86.9l-3.11,10.04c-1.2-.6-2.58-.9-4.11-.9-1.87,0-3.41.5-4.62,1.5-1.2,1-2.17,2.23-2.91,3.66-.74,1.44-1.32,3-1.76,4.67-.44,1.67-.82,3.18-1.15,4.52h12.04l-2.11,9.83h-12.04l-8.83,41.85h-13.45l8.83-41.85Z"/>
    <path class="cls-2" d="M1156.09,438.35c0,4.82,1.24,8.2,3.71,10.13,2.47,1.94,6.02,2.91,10.64,2.91,2.81,0,5.52-.33,8.13-1,2.61-.67,5.18-1.57,7.73-2.71l-1.71,10.64c-2.61.8-5.3,1.49-8.08,2.06-2.78.57-5.57.85-8.38.85-3.75,0-7.14-.45-10.19-1.35-3.04-.9-5.65-2.29-7.83-4.17-2.17-1.87-3.86-4.23-5.07-7.07-1.2-2.84-1.81-6.17-1.81-9.98,0-4.01.74-7.91,2.21-11.69,1.47-3.78,3.51-7.14,6.12-10.08,2.61-2.94,5.72-5.3,9.33-7.08,3.61-1.77,7.53-2.66,11.74-2.66,3.21,0,6.1.4,8.68,1.2,2.58.8,4.8,2.02,6.67,3.66,1.87,1.64,3.31,3.7,4.31,6.17,1,2.48,1.51,5.35,1.51,8.63,0,1.94-.12,3.86-.35,5.77-.24,1.91-.55,3.83-.95,5.77h-36.43ZM1180.68,429.12c.2-1.2.3-2.37.3-3.51,0-2.81-.72-4.95-2.16-6.42-1.44-1.47-3.56-2.21-6.37-2.21-4.15,0-7.29,1.14-9.43,3.41-2.14,2.28-3.85,5.19-5.12,8.73h22.78Z"/>
    <path class="cls-2" d="M1242.19,419.38c-1.74-.67-3.53-1.24-5.37-1.71-1.84-.47-3.73-.7-5.67-.7-1,0-2.04.08-3.11.25-1.07.17-2.04.45-2.91.85-.87.4-1.59.94-2.16,1.61-.57.67-.85,1.5-.85,2.51,0,1.07.43,2.06,1.3,2.96.87.9,1.94,1.81,3.21,2.71,1.27.9,2.67,1.84,4.21,2.81,1.54.97,2.94,2.07,4.21,3.31,1.27,1.24,2.34,2.66,3.21,4.26.87,1.61,1.3,3.45,1.3,5.52,0,3.35-.67,6.14-2.01,8.38-1.34,2.24-3.11,4.03-5.32,5.37-2.21,1.34-4.7,2.29-7.48,2.86-2.78.57-5.6.85-8.48.85s-5.44-.24-8.08-.7c-2.64-.47-5.2-1.27-7.68-2.41l2.91-10.74c1.94,1.07,3.91,2.01,5.92,2.81s4.32,1.2,6.92,1.2c1.14,0,2.26-.1,3.36-.3,1.1-.2,2.09-.52,2.96-.95.87-.43,1.57-1.02,2.11-1.76.53-.74.8-1.64.8-2.71,0-1.41-.44-2.62-1.3-3.66-.87-1.04-1.94-2.01-3.21-2.91-1.27-.9-2.68-1.82-4.21-2.76-1.54-.94-2.94-1.99-4.21-3.16-1.27-1.17-2.34-2.52-3.21-4.06-.87-1.54-1.3-3.38-1.3-5.52,0-3.01.67-5.57,2.01-7.68,1.34-2.11,3.08-3.81,5.22-5.12,2.14-1.3,4.53-2.24,7.17-2.81,2.64-.57,5.3-.85,7.98-.85,2.47,0,4.95.2,7.43.6,2.47.4,4.88.9,7.22,1.5l-2.91,10.14Z"/>
    <path class="cls-2" d="M1291.66,419.38c-1.74-.67-3.53-1.24-5.37-1.71-1.84-.47-3.73-.7-5.67-.7-1,0-2.04.08-3.11.25-1.07.17-2.04.45-2.91.85-.87.4-1.59.94-2.16,1.61-.57.67-.85,1.5-.85,2.51,0,1.07.43,2.06,1.3,2.96.87.9,1.94,1.81,3.21,2.71,1.27.9,2.67,1.84,4.21,2.81,1.54.97,2.94,2.07,4.21,3.31,1.27,1.24,2.34,2.66,3.21,4.26.87,1.61,1.3,3.45,1.3,5.52,0,3.35-.67,6.14-2.01,8.38-1.34,2.24-3.11,4.03-5.32,5.37-2.21,1.34-4.7,2.29-7.48,2.86-2.78.57-5.6.85-8.48.85s-5.44-.24-8.08-.7c-2.64-.47-5.2-1.27-7.68-2.41l2.91-10.74c1.94,1.07,3.91,2.01,5.92,2.81s4.32,1.2,6.92,1.2c1.14,0,2.26-.1,3.36-.3,1.1-.2,2.09-.52,2.96-.95.87-.43,1.57-1.02,2.11-1.76.53-.74.8-1.64.8-2.71,0-1.41-.44-2.62-1.3-3.66-.87-1.04-1.94-2.01-3.21-2.91-1.27-.9-2.68-1.82-4.21-2.76-1.54-.94-2.94-1.99-4.21-3.16-1.27-1.17-2.34-2.52-3.21-4.06-.87-1.54-1.3-3.38-1.3-5.52,0-3.01.67-5.57,2.01-7.68,1.34-2.11,3.08-3.81,5.22-5.12,2.14-1.3,4.53-2.24,7.17-2.81,2.64-.57,5.3-.85,7.98-.85,2.47,0,4.95.2,7.43.6,2.47.4,4.88.9,7.22,1.5l-2.91,10.14Z"/>
    <path class="cls-2" d="M1312.83,408.34h13.45l-11.04,51.68h-13.45l11.04-51.68ZM1317.75,386.07h13.45l-2.81,12.84h-13.45l2.81-12.84Z"/>
    <path class="cls-2" d="M1376.81,408.69c2.91,1.04,5.4,2.53,7.48,4.47,2.07,1.94,3.7,4.31,4.87,7.12,1.17,2.81,1.76,5.99,1.76,9.53,0,4.55-.75,8.75-2.26,12.59-1.5,3.85-3.61,7.16-6.32,9.93-2.71,2.78-5.96,4.95-9.73,6.52-3.78,1.57-7.94,2.36-12.49,2.36-7.36,0-13.11-2.11-17.26-6.32-4.15-4.21-6.22-9.97-6.22-17.26,0-4.28.79-8.29,2.36-12.04,1.57-3.75,3.73-6.97,6.47-9.68,2.74-2.71,5.97-4.85,9.68-6.42,3.71-1.57,7.74-2.36,12.09-2.36,3.48,0,6.67.52,9.58,1.56ZM1368.03,448.78c1.94-1.34,3.56-3.04,4.87-5.12,1.3-2.07,2.29-4.33,2.96-6.77.67-2.44,1-4.77,1-6.97,0-1.67-.17-3.26-.5-4.77-.34-1.5-.89-2.81-1.66-3.91-.77-1.1-1.81-1.99-3.11-2.66-1.3-.67-2.96-1-4.97-1-2.68,0-5,.65-6.97,1.96-1.97,1.3-3.63,2.99-4.97,5.07-1.34,2.07-2.34,4.35-3.01,6.82-.67,2.48-1,4.88-1,7.23,0,1.74.18,3.35.55,4.82.37,1.47.97,2.74,1.81,3.81.84,1.07,1.92,1.92,3.26,2.56,1.34.64,2.98.95,4.92.95,2.61,0,4.88-.67,6.82-2.01Z"/>
    <path class="cls-2" d="M1410.37,415.77c.33-1.54.6-2.96.8-4.26.2-1.3.37-2.36.5-3.16h13.15l-.9,5.02h.2c1.87-1.74,4.05-3.21,6.52-4.42,2.47-1.2,5.18-1.81,8.13-1.81,5.08,0,9.16,1.47,12.24,4.42,3.08,2.94,4.62,6.99,4.62,12.14,0,1.94-.2,3.9-.6,5.87-.4,1.97-.77,3.76-1.1,5.37l-5.42,25.09h-13.45l5.02-24.38c.33-1.74.67-3.5,1-5.27.33-1.77.5-3.63.5-5.57,0-2.14-.69-3.88-2.06-5.22-1.37-1.34-3.13-2.01-5.27-2.01-2.34,0-4.33.5-5.97,1.5-1.64,1-3.01,2.29-4.11,3.86-1.1,1.57-2.01,3.33-2.71,5.27-.7,1.94-1.25,3.88-1.66,5.82l-5.52,25.99h-13.45l9.53-44.25Z"/>
    <path class="cls-2" d="M1499.88,452.1h-.2c-2.34,2.94-4.77,5.2-7.28,6.77-2.51,1.57-5.64,2.36-9.38,2.36-4.68,0-8.51-1.25-11.49-3.76-2.98-2.51-4.47-6.17-4.47-10.99,0-4.28,1.05-7.64,3.16-10.08,2.11-2.44,4.75-4.28,7.93-5.52,3.18-1.24,6.62-2.01,10.34-2.31s7.14-.45,10.29-.45h4.72c.2-.74.32-1.47.35-2.21.03-.74.05-1.47.05-2.21,0-1.27-.32-2.34-.95-3.21-.64-.87-1.46-1.57-2.46-2.11-1-.54-2.11-.9-3.31-1.1-1.2-.2-2.41-.3-3.61-.3-3.01,0-5.92.35-8.73,1.05-2.81.7-5.55,1.69-8.23,2.96l1.91-10.74c2.88-1,5.77-1.77,8.68-2.31,2.91-.53,5.87-.8,8.88-.8,2.61,0,5.12.27,7.53.8,2.41.54,4.53,1.42,6.37,2.66,1.84,1.24,3.33,2.88,4.47,4.92,1.14,2.04,1.71,4.57,1.71,7.58,0,1.14-.13,2.63-.4,4.46-.27,1.84-.6,3.85-1,6.02-.4,2.17-.84,4.48-1.3,6.92-.47,2.44-.94,4.83-1.4,7.17-.47,2.34-.9,4.58-1.3,6.72-.4,2.14-.7,4.01-.9,5.62h-11.34l1.4-7.93ZM1482.02,450.04c1.4.9,2.98,1.35,4.72,1.35,2.47,0,4.57-.4,6.27-1.2,1.71-.8,3.14-1.91,4.32-3.31,1.17-1.41,2.11-3.03,2.81-4.87.7-1.84,1.32-3.8,1.86-5.87h-4.72c-1.61,0-3.43.1-5.47.3-2.04.2-3.93.65-5.67,1.35-1.74.7-3.21,1.69-4.42,2.96-1.2,1.27-1.81,3.01-1.81,5.22,0,1.81.7,3.16,2.11,4.06Z"/>
    <path class="cls-2" d="M1543.73,384.76h13.45l-15.96,75.26h-13.45l15.96-75.26Z"/>
    <path class="cls-2" d="M1599.93,419.38c-1.74-.67-3.53-1.24-5.37-1.71-1.84-.47-3.73-.7-5.67-.7-1,0-2.04.08-3.11.25-1.07.17-2.04.45-2.91.85-.87.4-1.59.94-2.16,1.61-.57.67-.85,1.5-.85,2.51,0,1.07.43,2.06,1.3,2.96.87.9,1.94,1.81,3.21,2.71,1.27.9,2.67,1.84,4.21,2.81,1.54.97,2.94,2.07,4.21,3.31,1.27,1.24,2.34,2.66,3.21,4.26.87,1.61,1.3,3.45,1.3,5.52,0,3.35-.67,6.14-2.01,8.38-1.34,2.24-3.11,4.03-5.32,5.37-2.21,1.34-4.7,2.29-7.48,2.86-2.78.57-5.6.85-8.48.85s-5.44-.24-8.08-.7c-2.64-.47-5.2-1.27-7.68-2.41l2.91-10.74c1.94,1.07,3.91,2.01,5.92,2.81s4.32,1.2,6.92,1.2c1.14,0,2.26-.1,3.36-.3,1.1-.2,2.09-.52,2.96-.95.87-.43,1.57-1.02,2.11-1.76.53-.74.8-1.64.8-2.71,0-1.41-.44-2.62-1.3-3.66-.87-1.04-1.94-2.01-3.21-2.91-1.27-.9-2.68-1.82-4.21-2.76-1.54-.94-2.94-1.99-4.21-3.16-1.27-1.17-2.34-2.52-3.21-4.06-.87-1.54-1.3-3.38-1.3-5.52,0-3.01.67-5.57,2.01-7.68,1.34-2.11,3.08-3.81,5.22-5.12,2.14-1.3,4.53-2.24,7.17-2.81,2.64-.57,5.3-.85,7.98-.85,2.47,0,4.95.2,7.43.6,2.47.4,4.88.9,7.22,1.5l-2.91,10.14Z"/>
  </g>
</svg>