<?xml version="1.0" encoding="UTF-8"?>
<svg id="Layer_2" data-name="Layer 2" xmlns="http://www.w3.org/2000/svg" viewBox="0 0 51.6 51.6">
  <defs>
    <style>
      .cls-1 {
        fill: #e52823;
      }
    </style>
  </defs>
  <g id="Layer_1-2" data-name="Layer 1">
    <path class="cls-1" d="M25.8,51.6C11.55,51.6,0,40.05,0,25.8S11.55,0,25.8,0s25.8,11.55,25.8,25.8c-.01,14.24-11.56,25.79-25.8,25.8ZM25.8,4.53c-11.75,0-21.28,9.52-21.29,21.27,0,11.75,9.52,21.28,21.27,21.29,11.75,0,21.28-9.52,21.29-21.27,0,0,0,0,0-.01-.01-11.74-9.53-21.26-21.27-21.28Z"/>
    <rect class="cls-1" x="12.33" y="17.99" width="26.55" height="4.71" rx="1.97" ry="1.97"/>
    <rect class="cls-1" x="12.33" y="28.35" width="26.55" height="4.71" rx="1.97" ry="1.97"/>
  </g>
</svg>