<?xml version="1.0" encoding="UTF-8"?>
<svg id="Layer_2" data-name="Layer 2" xmlns="http://www.w3.org/2000/svg" viewBox="0 0 521.61 521.61">
  <defs>
    <style>
      .cls-1 {
        fill: #c52126;
      }
    </style>
  </defs>
  <g id="Layer_1-2" data-name="Layer 1">
    <path class="cls-1" d="M260.8,521.61C116.77,521.61,0,404.84,0,260.8S116.77,0,260.8,0s260.8,116.77,260.8,260.8c-.11,143.99-116.81,260.69-260.8,260.8ZM260.8,45.79c-118.8-.06-215.16,96.21-215.21,215.01-.06,118.8,96.21,215.16,215.01,215.21,118.8.06,215.16-96.21,215.21-215.01,0-.03,0-.07,0-.1-.11-118.72-96.29-214.95-215.01-215.11Z"/>
    <rect class="cls-1" x="124.64" y="181.86" width="268.39" height="47.61" rx="1.97" ry="1.97"/>
    <rect class="cls-1" x="124.64" y="286.58" width="268.39" height="47.61" rx="1.97" ry="1.97"/>
  </g>
</svg>